<svg xmlns="http://www.w3.org/2000/svg" viewBox="0 0 1920.981 1081.743"><defs><style>.a{fill:#e6e6e6}</style></defs><path class="a" d="M.49.872h1920v1080H.49z"/><path d="M.49.872l1920 1080m0-1080l-1920 1080" fill="none" stroke="#b3b3b3" stroke-miterlimit="10" stroke-width="2"/><path class="a" d="M832.49 468.872h256v144h-256z"/><path d="M1030.146 478.501a16.007 16.007 0 0116.074 16.074v96.446a16.008 16.008 0 01-16.074 16.074H890.835a16.008 16.008 0 01-16.074-16.074v-96.446a16.007 16.007 0 0116.074-16.074zm-2.01 112.52a1.776 1.776 0 002.01-2.01v-92.427a1.776 1.776 0 00-2.01-2.009H892.845a1.776 1.776 0 00-2.009 2.01v92.426a1.776 1.776 0 002.01 2.01zm-120.054-79.2a13.752 13.752 0 11-3.852 9.545 12.965 12.965 0 013.852-9.545zm-1.173 63.126v-16.074l13.396-13.396q2.676-2.676 5.358 0l13.395 13.396 40.186-40.186q2.676-2.677 5.358 0l29.47 29.469v26.79z" fill="gray"/></svg>