<svg xmlns="http://www.w3.org/2000/svg" viewBox="0 0 1920.98052 1081.74315"><defs><style>.a{fill:#e6e6e6;}.b{fill:none;stroke:#b3b3b3;stroke-miterlimit:10;stroke-width:2px;}.c{fill:gray;}</style></defs><rect class="a" x="0.49026" y="0.87158" width="1920" height="1080"/><line class="b" x1="0.49026" y1="0.87158" x2="1920.49026" y2="1080.87158"/><line class="b" x1="1920.49026" y1="0.87158" x2="0.49026" y2="1080.87158"/><rect class="a" x="832.49026" y="468.87158" width="256" height="144"/><path class="c" d="M1029.65527,477.62939a16.0071,16.0071,0,0,1,16.07422,16.07422v96.4458a16.00791,16.00791,0,0,1-16.07422,16.07422H890.34473a16.00791,16.00791,0,0,1-16.07422-16.07422v-96.4458a16.0071,16.0071,0,0,1,16.07422-16.07422Zm-2.00879,112.52a1.77609,1.77609,0,0,0,2.00879-2.00976V495.71289a1.776,1.776,0,0,0-2.00879-2.00928H892.354a1.7761,1.7761,0,0,0-2.00927,2.00928v92.42676a1.77624,1.77624,0,0,0,2.00927,2.00976Zm-120.05517-79.1997a13.7523,13.7523,0,1,1-3.85108,9.54443A12.96489,12.96489,0,0,1,907.59131,510.94971ZM906.419,574.0752V558.001l13.3955-13.39551q2.67627-2.67627,5.35791,0L938.56787,558.001l40.186-40.186q2.67627-2.67627,5.35742,0l29.46972,29.46924v26.791Z" transform="translate(0.49026 0.87158)"/></svg>