<?xml version="1.0" encoding="utf-8"?>
<!-- Generator: Adobe Illustrator 22.1.0, SVG Export Plug-In . SVG Version: 6.00 Build 0)  -->
<!DOCTYPE svg PUBLIC "-//W3C//DTD SVG 1.1//EN" "http://www.w3.org/Graphics/SVG/1.1/DTD/svg11.dtd">
<svg version="1.1" id="Layer_1" xmlns="http://www.w3.org/2000/svg" xmlns:xlink="http://www.w3.org/1999/xlink" x="0px" y="0px"
	 viewBox="0 0 216 216" style="enable-background:new 0 0 216 216;" xml:space="preserve">
<style type="text/css">
	.st0{fill:#FFFFFF;}
</style>
<path class="st0" d="M108,16c-51.3,0-93,41.7-93,93c0,51.3,41.7,93,93,93s93-41.7,93-93C201,57.7,159.3,16,108,16z M108,182.2
	c-40.4,0-73.2-32.8-73.2-73.2c0-40.4,32.8-73.2,73.2-73.2c40.4,0,73.2,32.8,73.2,73.2C181.2,149.4,148.4,182.2,108,182.2z"/>
<path class="st0" d="M89.3,78.5c-1.6-1.7-5.9-1.7-5.9,0v67.2c0,1.7,4.2,1.7,5.9,0l55.2-30.6c1.7-1.6,1.7-4.3,0-6L89.3,78.5z"/>
</svg>
